<?xml version="1.0" encoding="UTF-8"?>
<svg clip-rule="evenodd" fill-rule="evenodd" stroke-linejoin="round" stroke-miterlimit="1.4142" version="1.1" viewBox="0 0 25 25" xml:space="preserve" xmlns="http://www.w3.org/2000/svg"><rect id="docs" x=".126" y=".044" width="24" height="24" fill="none"/><g transform="translate(.37402 .45917)" fill="#fff" opacity=".088037"><path d="m11.387 1.373c-1.3105 5e-4 -2.6211 0.00372-3.9316 0.011719-0.778 0.015-1.45 0.26783-2 0.67383-1.259 0.797-2.1159 2.2062-2.1309 3.6992-0.013 4.191-0.013 8.3813 0 12.572 0.023 2.378 2.1 4.3501 4.373 4.3711 2.953 0.01 5.9044 0.01 8.8574 0 2.377-0.022 4.351-2.0971 4.373-4.3711 0.013-4.191 0.013-8.3813 0-12.572-0.023-2.377-2.1-4.351-4.373-4.373l-1.2363-0.00195c-1.3105-7e-3 -2.6211-0.010266-3.9316-0.00977zm2.9668 1.5c0.73611 0.00127 1.473 0.00497 2.209 0.011719 1.297 0.025 2.401 0.95681 2.75 2.1328 0.03 0.166 0.04483 0.33486 0.04883 0.50586 0.018 2.965 0.018 5.9315 0 8.8965-0.035 1.829-1.5827 3.3585-3.3477 3.4375-2.811 0.089-5.6819-0.01105-8.5469 2e-3h-0.044924c-0.26954 0.0057-0.54064 0.02036-0.80859 0.04492v-14.772c0.34867-0.15691 0.72761-0.24677 1.1152-0.24805 2.2088 0 4.4167-0.015516 6.625-0.011719zm-8.2402 0.54688v14.545c-0.44901 0.07194-0.8838 0.19037-1.2871 0.38281v-0.0098c-0.04-4.19-0.014953-8.3813-0.00195-12.572 0.00923-0.94544 0.5352-1.8145 1.2891-2.3457zm13.32 13.084c-2e-3 0.605-0.0039 1.2104-0.0059 1.8164-0.015 1.523-1.3592 2.8519-2.8652 2.8809-2.952 0.028-5.9054 9e-3 -8.8574 0-1.245-0.011-2.372-0.92098-2.748-2.084 0.465-0.322 1.5616-0.54559 2.5156-0.55859 2.82-0.013 5.639 0.018 8.459 0 1.467-0.028 2.769-0.87069 3.502-2.0547z"/><path d="m18.966 17.687c0.178 0.042 0.244 0.265 0.109 0.395-0.406 0.339-0.818 0.673-1.284 0.915-0.731 0.379-1.551 0.576-2.379 0.581l-9.004 4e-3c-0.245-0.017-0.282-0.43-1e-3 -0.45 3.019-1e-3 6.038 0.013 9.056-4e-3 1.084-0.019 2.144-0.412 2.976-1.101l0.347-0.29c0.04-0.029 0.05-0.061 0.18-0.05z" fill-rule="nonzero"/><path d="m18.966 18.407c0.178 0.042 0.246 0.262 0.109 0.395-0.334 0.279-0.666 0.559-1.039 0.779-0.79 0.466-1.704 0.711-2.624 0.717l-9.004 4e-3c-0.245-0.017-0.282-0.43-1e-3 -0.45 3.019-1e-3 6.038 0.014 9.056-4e-3 1.08-0.019 2.143-0.411 2.976-1.101l0.347-0.29c0.096-0.069 0.064-0.06 0.18-0.05z" fill-rule="nonzero"/><path d="m12.763 6.288c2.141 0.041 4.122 1.694 4.549 3.81 0.437 2.167-0.827 4.569-2.881 5.393-2.485 0.996-5.688-0.615-6.313-3.362-0.606-2.667 1.451-5.687 4.343-5.835 0.085-5e-3 0.096-7e-3 0.302-6e-3zm1.205 7.335c-0.461 0.203-0.978 0.294-1.487 0.264l-0.048 1.176c0.089 7e-3 0.179 0.011 0.27 0.011 0.63 0 1.246-0.17 1.798-0.468zm-3.892-1.323-0.872 0.458c0.308 0.613 0.76 1.157 1.308 1.563l0.573-0.864c-0.358-0.223-0.67-0.533-0.897-0.935-0.041-0.073-0.079-0.147-0.112-0.222zm5.486-1.134c6e-3 0.461-0.1 0.925-0.344 1.356-0.025 0.044-0.051 0.087-0.079 0.129l0.882 0.561c0.248-0.38 0.433-0.802 0.535-1.249 0.058-0.256 0.087-0.514 0.09-0.773zm-2.887-2.307c-1.697 0.034-2.832 2.516-1.413 3.826 1.084 1.001 3.198 0.441 3.541-1.157 0.266-1.244-0.702-2.642-2.073-2.669h-0.055zm-3.227-0.052c-0.298 0.43-0.514 0.918-0.619 1.439-0.035 0.171-0.056 0.343-0.065 0.515l1.1 0.092c0.053-0.495 0.224-0.983 0.494-1.407zm5.239-1.188-0.548 0.945c0.421 0.283 0.775 0.678 1.024 1.131l0.963-0.533c-0.341-0.622-0.835-1.162-1.439-1.543zm-2.02-0.581h-0.015c-0.565 0.011-1.116 0.155-1.618 0.402l0.431 0.973c0.353-0.184 0.754-0.294 1.196-0.303z"/></g></svg>
