<?xml version="1.0" encoding="UTF-8" standalone="no"?><!DOCTYPE svg PUBLIC "-//W3C//DTD SVG 1.1//EN" "http://www.w3.org/Graphics/SVG/1.1/DTD/svg11.dtd"><svg width="100%" height="100%" viewBox="0 0 25 25" version="1.1" xmlns="http://www.w3.org/2000/svg" xmlns:xlink="http://www.w3.org/1999/xlink" xml:space="preserve" xmlns:serif="http://www.serif.com/" style="fill-rule:evenodd;clip-rule:evenodd;stroke-linejoin:round;stroke-miterlimit:1.41421;"><rect id="docs" x="0.126" y="0.044" width="24" height="24" style="fill:none;"/><path d="M5.455,2.059c0.55,-0.406 1.223,-0.659 2.001,-0.674c2.621,-0.016 5.242,-0.017 7.863,-0.003c0.412,0.001 0.824,0.002 1.236,0.003c2.273,0.022 4.349,1.995 4.372,4.372c0.013,4.191 0.013,8.382 0,12.573c-0.022,2.274 -1.995,4.35 -4.372,4.372c-2.953,0.01 -5.905,0.01 -8.858,0c-2.273,-0.021 -4.349,-1.994 -4.372,-4.372c-0.013,-4.191 -0.013,-8.382 0,-12.573c0.015,-1.493 0.871,-2.901 2.13,-3.698Zm13.978,14.445c-0.733,1.184 -2.034,2.027 -3.501,2.055c-2.82,0.018 -5.64,-0.013 -8.46,0c-0.954,0.013 -2.049,0.237 -2.514,0.559c0.376,1.163 1.503,2.073 2.748,2.084c2.952,0.009 5.904,0.028 8.856,0c1.506,-0.029 2.85,-1.358 2.865,-2.881c0.002,-0.606 0.004,-1.212 0.006,-1.817Zm-0.121,-11.487c-0.349,-1.176 -1.453,-2.107 -2.75,-2.132c-2.944,-0.027 -5.889,0 -8.834,0c-1.515,0.005 -2.888,1.344 -2.903,2.881c-0.013,4.191 -0.039,8.381 0.001,12.571l0,0.01c0.788,-0.376 1.697,-0.468 2.595,-0.487l0.045,-0.001c2.865,-0.013 5.736,0.087 8.547,-0.002c1.765,-0.079 3.314,-1.608 3.349,-3.437c0.018,-2.965 0.018,-5.931 0,-8.896c-0.004,-0.171 -0.02,-0.341 -0.05,-0.507Z"/><path d="M18.966,17.687c0.178,0.042 0.244,0.265 0.109,0.395c-0.406,0.339 -0.818,0.673 -1.284,0.915c-0.731,0.379 -1.551,0.576 -2.379,0.581l-9.004,0.004c-0.245,-0.017 -0.282,-0.43 -0.001,-0.45c3.019,-0.001 6.038,0.013 9.056,-0.004c1.084,-0.019 2.144,-0.412 2.976,-1.101l0.347,-0.29c0.04,-0.029 0.05,-0.061 0.18,-0.05Z" style="fill-rule:nonzero;"/><path d="M18.966,18.407c0.178,0.042 0.246,0.262 0.109,0.395c-0.334,0.279 -0.666,0.559 -1.039,0.779c-0.79,0.466 -1.704,0.711 -2.624,0.717l-9.004,0.004c-0.245,-0.017 -0.282,-0.43 -0.001,-0.45c3.019,-0.001 6.038,0.014 9.056,-0.004c1.08,-0.019 2.143,-0.411 2.976,-1.101l0.347,-0.29c0.096,-0.069 0.064,-0.06 0.18,-0.05Z" style="fill-rule:nonzero;"/><rect x="6.114" y="2.492" width="0.5" height="15.591"/><rect x="6.114" y="2.492" width="0.5" height="15.591" style="fill-rule:nonzero;"/><path d="M12.763,6.288c2.141,0.041 4.122,1.694 4.549,3.81c0.437,2.167 -0.827,4.569 -2.881,5.393c-2.485,0.996 -5.688,-0.615 -6.313,-3.362c-0.606,-2.667 1.451,-5.687 4.343,-5.835c0.085,-0.005 0.096,-0.007 0.302,-0.006Zm1.205,7.335c-0.461,0.203 -0.978,0.294 -1.487,0.264l-0.048,1.176c0.089,0.007 0.179,0.011 0.27,0.011c0.63,0 1.246,-0.17 1.798,-0.468l-0.533,-0.983Zm-3.892,-1.323l-0.872,0.458c0.308,0.613 0.76,1.157 1.308,1.563l0.573,-0.864c-0.358,-0.223 -0.67,-0.533 -0.897,-0.935c-0.041,-0.073 -0.079,-0.147 -0.112,-0.222Zm5.486,-1.134c0.006,0.461 -0.1,0.925 -0.344,1.356c-0.025,0.044 -0.051,0.087 -0.079,0.129l0.882,0.561c0.248,-0.38 0.433,-0.802 0.535,-1.249c0.058,-0.256 0.087,-0.514 0.09,-0.773l-1.084,-0.024Zm-2.887,-2.307c-1.697,0.034 -2.832,2.516 -1.413,3.826c1.084,1.001 3.198,0.441 3.541,-1.157c0.266,-1.244 -0.702,-2.642 -2.073,-2.669c-0.027,0 -0.027,0 -0.055,0Zm-3.227,-0.052c-0.298,0.43 -0.514,0.918 -0.619,1.439c-0.035,0.171 -0.056,0.343 -0.065,0.515l1.1,0.092c0.053,-0.495 0.224,-0.983 0.494,-1.407l-0.91,-0.639Zm5.239,-1.188l-0.548,0.945c0.421,0.283 0.775,0.678 1.024,1.131l0.963,-0.533c-0.341,-0.622 -0.835,-1.162 -1.439,-1.543Zm-2.02,-0.581l-0.015,0c-0.565,0.011 -1.116,0.155 -1.618,0.402l0.431,0.973c0.353,-0.184 0.754,-0.294 1.196,-0.303l0.006,-1.072Z"/></svg>